<?xml version="1.0" standalone="no"?>
<!DOCTYPE svg PUBLIC "-//W3C//DTD SVG 20010904//EN"
 "http://www.w3.org/TR/2001/REC-SVG-20010904/DTD/svg10.dtd">
<svg version="1.0" xmlns="http://www.w3.org/2000/svg"
 width="500.000000pt" height="500.000000pt" viewBox="0 0 500.000000 500.000000"
 preserveAspectRatio="xMidYMid meet">

<g transform="translate(0.000000,500.000000) scale(0.100000,-0.100000)"
fill="#000000" stroke="none">
<path d="M1250 3215 l0 -35 1250 0 1250 0 0 35 0 35 -1250 0 -1250 0 0 -35z"/>
<path d="M1257 2763 c-4 -3 -7 -19 -7 -35 l0 -28 1251 0 1250 0 -3 33 -3 32
-1241 3 c-682 1 -1244 -1 -1247 -5z"/>
<path d="M1250 2255 l0 -35 1250 0 1250 0 0 35 0 35 -1250 0 -1250 0 0 -35z"/>
<path d="M1250 1785 l0 -35 1250 0 1250 0 0 35 0 35 -1250 0 -1250 0 0 -35z"/>
</g>
</svg>
